<mxfile host="app.diagrams.net" modified="2020-12-01T19:35:52.241Z" agent="5.0 (Macintosh; Intel Mac OS X 10_15_7) AppleWebKit/537.36 (KHTML, like Gecko) Chrome/87.0.4280.67 Safari/537.36 Edg/87.0.664.52" etag="SEr16vyT2XxkGzvN8SSK" version="13.10.5" type="github">
  <diagram id="R2lEEEUBdFMjLlhIrx00" name="Page-1">
    <mxGraphModel dx="1096" dy="639" grid="1" gridSize="10" guides="1" tooltips="1" connect="1" arrows="1" fold="1" page="1" pageScale="1" pageWidth="850" pageHeight="1100" math="0" shadow="0" extFonts="Permanent Marker^https://fonts.googleapis.com/css?family=Permanent+Marker">
      <root>
        <mxCell id="0" />
        <mxCell id="1" parent="0" />
        <mxCell id="7pn-BCswpGSPGxiC52ko-27" value="orders" style="shape=table;startSize=30;container=1;collapsible=1;childLayout=tableLayout;fixedRows=1;rowLines=0;fontStyle=1;align=center;resizeLast=1;" vertex="1" parent="1">
          <mxGeometry x="620" y="40" width="180" height="240" as="geometry" />
        </mxCell>
        <mxCell id="7pn-BCswpGSPGxiC52ko-28" value="" style="shape=partialRectangle;collapsible=0;dropTarget=0;pointerEvents=0;fillColor=none;top=0;left=0;bottom=1;right=0;points=[[0,0.5],[1,0.5]];portConstraint=eastwest;" vertex="1" parent="7pn-BCswpGSPGxiC52ko-27">
          <mxGeometry y="30" width="180" height="30" as="geometry" />
        </mxCell>
        <mxCell id="7pn-BCswpGSPGxiC52ko-29" value="PK" style="shape=partialRectangle;connectable=0;fillColor=none;top=0;left=0;bottom=0;right=0;fontStyle=1;overflow=hidden;" vertex="1" parent="7pn-BCswpGSPGxiC52ko-28">
          <mxGeometry width="30" height="30" as="geometry" />
        </mxCell>
        <mxCell id="7pn-BCswpGSPGxiC52ko-30" value="order_id" style="shape=partialRectangle;connectable=0;fillColor=none;top=0;left=0;bottom=0;right=0;align=left;spacingLeft=6;fontStyle=5;overflow=hidden;" vertex="1" parent="7pn-BCswpGSPGxiC52ko-28">
          <mxGeometry x="30" width="150" height="30" as="geometry" />
        </mxCell>
        <mxCell id="7pn-BCswpGSPGxiC52ko-31" value="" style="shape=partialRectangle;collapsible=0;dropTarget=0;pointerEvents=0;fillColor=none;top=0;left=0;bottom=0;right=0;points=[[0,0.5],[1,0.5]];portConstraint=eastwest;" vertex="1" parent="7pn-BCswpGSPGxiC52ko-27">
          <mxGeometry y="60" width="180" height="30" as="geometry" />
        </mxCell>
        <mxCell id="7pn-BCswpGSPGxiC52ko-32" value="" style="shape=partialRectangle;connectable=0;fillColor=none;top=0;left=0;bottom=0;right=0;editable=1;overflow=hidden;" vertex="1" parent="7pn-BCswpGSPGxiC52ko-31">
          <mxGeometry width="30" height="30" as="geometry" />
        </mxCell>
        <mxCell id="7pn-BCswpGSPGxiC52ko-33" value="user_id" style="shape=partialRectangle;connectable=0;fillColor=none;top=0;left=0;bottom=0;right=0;align=left;spacingLeft=6;overflow=hidden;" vertex="1" parent="7pn-BCswpGSPGxiC52ko-31">
          <mxGeometry x="30" width="150" height="30" as="geometry" />
        </mxCell>
        <mxCell id="7pn-BCswpGSPGxiC52ko-34" value="" style="shape=partialRectangle;collapsible=0;dropTarget=0;pointerEvents=0;fillColor=none;top=0;left=0;bottom=0;right=0;points=[[0,0.5],[1,0.5]];portConstraint=eastwest;" vertex="1" parent="7pn-BCswpGSPGxiC52ko-27">
          <mxGeometry y="90" width="180" height="30" as="geometry" />
        </mxCell>
        <mxCell id="7pn-BCswpGSPGxiC52ko-35" value="" style="shape=partialRectangle;connectable=0;fillColor=none;top=0;left=0;bottom=0;right=0;editable=1;overflow=hidden;" vertex="1" parent="7pn-BCswpGSPGxiC52ko-34">
          <mxGeometry width="30" height="30" as="geometry" />
        </mxCell>
        <mxCell id="7pn-BCswpGSPGxiC52ko-36" value="eval_set" style="shape=partialRectangle;connectable=0;fillColor=none;top=0;left=0;bottom=0;right=0;align=left;spacingLeft=6;overflow=hidden;" vertex="1" parent="7pn-BCswpGSPGxiC52ko-34">
          <mxGeometry x="30" width="150" height="30" as="geometry" />
        </mxCell>
        <mxCell id="7pn-BCswpGSPGxiC52ko-41" value="" style="shape=partialRectangle;collapsible=0;dropTarget=0;pointerEvents=0;fillColor=none;top=0;left=0;bottom=0;right=0;points=[[0,0.5],[1,0.5]];portConstraint=eastwest;" vertex="1" parent="7pn-BCswpGSPGxiC52ko-27">
          <mxGeometry y="120" width="180" height="30" as="geometry" />
        </mxCell>
        <mxCell id="7pn-BCswpGSPGxiC52ko-42" value="" style="shape=partialRectangle;connectable=0;fillColor=none;top=0;left=0;bottom=0;right=0;editable=1;overflow=hidden;" vertex="1" parent="7pn-BCswpGSPGxiC52ko-41">
          <mxGeometry width="30" height="30" as="geometry" />
        </mxCell>
        <mxCell id="7pn-BCswpGSPGxiC52ko-43" value="order_dow" style="shape=partialRectangle;connectable=0;fillColor=none;top=0;left=0;bottom=0;right=0;align=left;spacingLeft=6;overflow=hidden;" vertex="1" parent="7pn-BCswpGSPGxiC52ko-41">
          <mxGeometry x="30" width="150" height="30" as="geometry" />
        </mxCell>
        <mxCell id="7pn-BCswpGSPGxiC52ko-37" value="" style="shape=partialRectangle;collapsible=0;dropTarget=0;pointerEvents=0;fillColor=none;top=0;left=0;bottom=0;right=0;points=[[0,0.5],[1,0.5]];portConstraint=eastwest;" vertex="1" parent="7pn-BCswpGSPGxiC52ko-27">
          <mxGeometry y="150" width="180" height="30" as="geometry" />
        </mxCell>
        <mxCell id="7pn-BCswpGSPGxiC52ko-38" value="" style="shape=partialRectangle;connectable=0;fillColor=none;top=0;left=0;bottom=0;right=0;editable=1;overflow=hidden;" vertex="1" parent="7pn-BCswpGSPGxiC52ko-37">
          <mxGeometry width="30" height="30" as="geometry" />
        </mxCell>
        <mxCell id="7pn-BCswpGSPGxiC52ko-39" value="order_number" style="shape=partialRectangle;connectable=0;fillColor=none;top=0;left=0;bottom=0;right=0;align=left;spacingLeft=6;overflow=hidden;" vertex="1" parent="7pn-BCswpGSPGxiC52ko-37">
          <mxGeometry x="30" width="150" height="30" as="geometry" />
        </mxCell>
        <mxCell id="7pn-BCswpGSPGxiC52ko-45" value="" style="shape=partialRectangle;collapsible=0;dropTarget=0;pointerEvents=0;fillColor=none;top=0;left=0;bottom=0;right=0;points=[[0,0.5],[1,0.5]];portConstraint=eastwest;" vertex="1" parent="7pn-BCswpGSPGxiC52ko-27">
          <mxGeometry y="180" width="180" height="30" as="geometry" />
        </mxCell>
        <mxCell id="7pn-BCswpGSPGxiC52ko-46" value="" style="shape=partialRectangle;connectable=0;fillColor=none;top=0;left=0;bottom=0;right=0;editable=1;overflow=hidden;" vertex="1" parent="7pn-BCswpGSPGxiC52ko-45">
          <mxGeometry width="30" height="30" as="geometry" />
        </mxCell>
        <mxCell id="7pn-BCswpGSPGxiC52ko-47" value="order_hour_of_day" style="shape=partialRectangle;connectable=0;fillColor=none;top=0;left=0;bottom=0;right=0;align=left;spacingLeft=6;overflow=hidden;" vertex="1" parent="7pn-BCswpGSPGxiC52ko-45">
          <mxGeometry x="30" width="150" height="30" as="geometry" />
        </mxCell>
        <mxCell id="7pn-BCswpGSPGxiC52ko-49" value="" style="shape=partialRectangle;collapsible=0;dropTarget=0;pointerEvents=0;fillColor=none;top=0;left=0;bottom=0;right=0;points=[[0,0.5],[1,0.5]];portConstraint=eastwest;" vertex="1" parent="7pn-BCswpGSPGxiC52ko-27">
          <mxGeometry y="210" width="180" height="30" as="geometry" />
        </mxCell>
        <mxCell id="7pn-BCswpGSPGxiC52ko-50" value="" style="shape=partialRectangle;connectable=0;fillColor=none;top=0;left=0;bottom=0;right=0;editable=1;overflow=hidden;" vertex="1" parent="7pn-BCswpGSPGxiC52ko-49">
          <mxGeometry width="30" height="30" as="geometry" />
        </mxCell>
        <mxCell id="7pn-BCswpGSPGxiC52ko-51" value="days_since_prior" style="shape=partialRectangle;connectable=0;fillColor=none;top=0;left=0;bottom=0;right=0;align=left;spacingLeft=6;overflow=hidden;" vertex="1" parent="7pn-BCswpGSPGxiC52ko-49">
          <mxGeometry x="30" width="150" height="30" as="geometry" />
        </mxCell>
        <mxCell id="7pn-BCswpGSPGxiC52ko-52" value="products" style="shape=table;startSize=30;container=1;collapsible=1;childLayout=tableLayout;fixedRows=1;rowLines=0;fontStyle=1;align=center;resizeLast=1;" vertex="1" parent="1">
          <mxGeometry x="40" y="390" width="180" height="160" as="geometry" />
        </mxCell>
        <mxCell id="7pn-BCswpGSPGxiC52ko-53" value="" style="shape=partialRectangle;collapsible=0;dropTarget=0;pointerEvents=0;fillColor=none;top=0;left=0;bottom=1;right=0;points=[[0,0.5],[1,0.5]];portConstraint=eastwest;perimeterSpacing=1;" vertex="1" parent="7pn-BCswpGSPGxiC52ko-52">
          <mxGeometry y="30" width="180" height="30" as="geometry" />
        </mxCell>
        <mxCell id="7pn-BCswpGSPGxiC52ko-54" value="PK" style="shape=partialRectangle;connectable=0;fillColor=none;top=0;left=0;bottom=0;right=0;fontStyle=1;overflow=hidden;" vertex="1" parent="7pn-BCswpGSPGxiC52ko-53">
          <mxGeometry width="60" height="30" as="geometry" />
        </mxCell>
        <mxCell id="7pn-BCswpGSPGxiC52ko-55" value="product_id" style="shape=partialRectangle;connectable=0;fillColor=none;top=0;left=0;bottom=0;right=0;align=left;spacingLeft=6;fontStyle=5;overflow=hidden;" vertex="1" parent="7pn-BCswpGSPGxiC52ko-53">
          <mxGeometry x="60" width="120" height="30" as="geometry" />
        </mxCell>
        <mxCell id="7pn-BCswpGSPGxiC52ko-59" value="" style="shape=partialRectangle;collapsible=0;dropTarget=0;pointerEvents=0;fillColor=none;top=0;left=0;bottom=0;right=0;points=[[0,0.5],[1,0.5]];portConstraint=eastwest;" vertex="1" parent="7pn-BCswpGSPGxiC52ko-52">
          <mxGeometry y="60" width="180" height="30" as="geometry" />
        </mxCell>
        <mxCell id="7pn-BCswpGSPGxiC52ko-60" value="" style="shape=partialRectangle;connectable=0;fillColor=none;top=0;left=0;bottom=0;right=0;editable=1;overflow=hidden;" vertex="1" parent="7pn-BCswpGSPGxiC52ko-59">
          <mxGeometry width="60" height="30" as="geometry" />
        </mxCell>
        <mxCell id="7pn-BCswpGSPGxiC52ko-61" value="product_name" style="shape=partialRectangle;connectable=0;fillColor=none;top=0;left=0;bottom=0;right=0;align=left;spacingLeft=6;overflow=hidden;" vertex="1" parent="7pn-BCswpGSPGxiC52ko-59">
          <mxGeometry x="60" width="120" height="30" as="geometry" />
        </mxCell>
        <mxCell id="7pn-BCswpGSPGxiC52ko-66" value="" style="shape=partialRectangle;collapsible=0;dropTarget=0;pointerEvents=0;fillColor=none;top=0;left=0;bottom=0;right=0;points=[[0,0.5],[1,0.5]];portConstraint=eastwest;" vertex="1" parent="7pn-BCswpGSPGxiC52ko-52">
          <mxGeometry y="90" width="180" height="30" as="geometry" />
        </mxCell>
        <mxCell id="7pn-BCswpGSPGxiC52ko-67" value="FK" style="shape=partialRectangle;connectable=0;fillColor=none;top=0;left=0;bottom=0;right=0;fontStyle=0;overflow=hidden;" vertex="1" parent="7pn-BCswpGSPGxiC52ko-66">
          <mxGeometry width="60" height="30" as="geometry" />
        </mxCell>
        <mxCell id="7pn-BCswpGSPGxiC52ko-68" value="aisle_id" style="shape=partialRectangle;connectable=0;fillColor=none;top=0;left=0;bottom=0;right=0;align=left;spacingLeft=6;fontStyle=0;overflow=hidden;" vertex="1" parent="7pn-BCswpGSPGxiC52ko-66">
          <mxGeometry x="60" width="120" height="30" as="geometry" />
        </mxCell>
        <mxCell id="7pn-BCswpGSPGxiC52ko-70" value="" style="shape=partialRectangle;collapsible=0;dropTarget=0;pointerEvents=0;fillColor=none;top=0;left=0;bottom=0;right=0;points=[[0,0.5],[1,0.5]];portConstraint=eastwest;" vertex="1" parent="7pn-BCswpGSPGxiC52ko-52">
          <mxGeometry y="120" width="180" height="30" as="geometry" />
        </mxCell>
        <mxCell id="7pn-BCswpGSPGxiC52ko-71" value="FK" style="shape=partialRectangle;connectable=0;fillColor=none;top=0;left=0;bottom=0;right=0;fontStyle=0;overflow=hidden;" vertex="1" parent="7pn-BCswpGSPGxiC52ko-70">
          <mxGeometry width="60" height="30" as="geometry" />
        </mxCell>
        <mxCell id="7pn-BCswpGSPGxiC52ko-72" value="department_id" style="shape=partialRectangle;connectable=0;fillColor=none;top=0;left=0;bottom=0;right=0;align=left;spacingLeft=6;fontStyle=0;overflow=hidden;" vertex="1" parent="7pn-BCswpGSPGxiC52ko-70">
          <mxGeometry x="60" width="120" height="30" as="geometry" />
        </mxCell>
        <mxCell id="7pn-BCswpGSPGxiC52ko-73" value="aisles" style="shape=table;startSize=30;container=1;collapsible=1;childLayout=tableLayout;fixedRows=1;rowLines=0;fontStyle=1;align=center;resizeLast=1;strokeColor=#000000;" vertex="1" parent="1">
          <mxGeometry x="480" y="300" width="180" height="100" as="geometry" />
        </mxCell>
        <mxCell id="7pn-BCswpGSPGxiC52ko-74" value="" style="shape=partialRectangle;collapsible=0;dropTarget=0;pointerEvents=0;fillColor=none;top=0;left=0;bottom=1;right=0;points=[[0,0.5],[1,0.5]];portConstraint=eastwest;" vertex="1" parent="7pn-BCswpGSPGxiC52ko-73">
          <mxGeometry y="30" width="180" height="30" as="geometry" />
        </mxCell>
        <mxCell id="7pn-BCswpGSPGxiC52ko-75" value="PK" style="shape=partialRectangle;connectable=0;fillColor=none;top=0;left=0;bottom=0;right=0;fontStyle=1;overflow=hidden;" vertex="1" parent="7pn-BCswpGSPGxiC52ko-74">
          <mxGeometry width="30" height="30" as="geometry" />
        </mxCell>
        <mxCell id="7pn-BCswpGSPGxiC52ko-76" value="aisle_id" style="shape=partialRectangle;connectable=0;fillColor=none;top=0;left=0;bottom=0;right=0;align=left;spacingLeft=6;fontStyle=5;overflow=hidden;" vertex="1" parent="7pn-BCswpGSPGxiC52ko-74">
          <mxGeometry x="30" width="150" height="30" as="geometry" />
        </mxCell>
        <mxCell id="7pn-BCswpGSPGxiC52ko-77" value="" style="shape=partialRectangle;collapsible=0;dropTarget=0;pointerEvents=0;fillColor=none;top=0;left=0;bottom=0;right=0;points=[[0,0.5],[1,0.5]];portConstraint=eastwest;" vertex="1" parent="7pn-BCswpGSPGxiC52ko-73">
          <mxGeometry y="60" width="180" height="30" as="geometry" />
        </mxCell>
        <mxCell id="7pn-BCswpGSPGxiC52ko-78" value="" style="shape=partialRectangle;connectable=0;fillColor=none;top=0;left=0;bottom=0;right=0;editable=1;overflow=hidden;" vertex="1" parent="7pn-BCswpGSPGxiC52ko-77">
          <mxGeometry width="30" height="30" as="geometry" />
        </mxCell>
        <mxCell id="7pn-BCswpGSPGxiC52ko-79" value="aisle" style="shape=partialRectangle;connectable=0;fillColor=none;top=0;left=0;bottom=0;right=0;align=left;spacingLeft=6;overflow=hidden;" vertex="1" parent="7pn-BCswpGSPGxiC52ko-77">
          <mxGeometry x="30" width="150" height="30" as="geometry" />
        </mxCell>
        <mxCell id="7pn-BCswpGSPGxiC52ko-86" value="departments" style="shape=table;startSize=30;container=1;collapsible=1;childLayout=tableLayout;fixedRows=1;rowLines=0;fontStyle=1;align=center;resizeLast=1;strokeColor=#000000;" vertex="1" parent="1">
          <mxGeometry x="480" y="450" width="180" height="100" as="geometry" />
        </mxCell>
        <mxCell id="7pn-BCswpGSPGxiC52ko-87" value="" style="shape=partialRectangle;collapsible=0;dropTarget=0;pointerEvents=0;fillColor=none;top=0;left=0;bottom=1;right=0;points=[[0,0.5],[1,0.5]];portConstraint=eastwest;" vertex="1" parent="7pn-BCswpGSPGxiC52ko-86">
          <mxGeometry y="30" width="180" height="30" as="geometry" />
        </mxCell>
        <mxCell id="7pn-BCswpGSPGxiC52ko-88" value="PK" style="shape=partialRectangle;connectable=0;fillColor=none;top=0;left=0;bottom=0;right=0;fontStyle=1;overflow=hidden;" vertex="1" parent="7pn-BCswpGSPGxiC52ko-87">
          <mxGeometry width="30" height="30" as="geometry" />
        </mxCell>
        <mxCell id="7pn-BCswpGSPGxiC52ko-89" value="department_id" style="shape=partialRectangle;connectable=0;fillColor=none;top=0;left=0;bottom=0;right=0;align=left;spacingLeft=6;fontStyle=5;overflow=hidden;" vertex="1" parent="7pn-BCswpGSPGxiC52ko-87">
          <mxGeometry x="30" width="150" height="30" as="geometry" />
        </mxCell>
        <mxCell id="7pn-BCswpGSPGxiC52ko-90" value="" style="shape=partialRectangle;collapsible=0;dropTarget=0;pointerEvents=0;fillColor=none;top=0;left=0;bottom=0;right=0;points=[[0,0.5],[1,0.5]];portConstraint=eastwest;" vertex="1" parent="7pn-BCswpGSPGxiC52ko-86">
          <mxGeometry y="60" width="180" height="30" as="geometry" />
        </mxCell>
        <mxCell id="7pn-BCswpGSPGxiC52ko-91" value="" style="shape=partialRectangle;connectable=0;fillColor=none;top=0;left=0;bottom=0;right=0;editable=1;overflow=hidden;" vertex="1" parent="7pn-BCswpGSPGxiC52ko-90">
          <mxGeometry width="30" height="30" as="geometry" />
        </mxCell>
        <mxCell id="7pn-BCswpGSPGxiC52ko-92" value="department" style="shape=partialRectangle;connectable=0;fillColor=none;top=0;left=0;bottom=0;right=0;align=left;spacingLeft=6;overflow=hidden;" vertex="1" parent="7pn-BCswpGSPGxiC52ko-90">
          <mxGeometry x="30" width="150" height="30" as="geometry" />
        </mxCell>
        <mxCell id="7pn-BCswpGSPGxiC52ko-99" value="order_products" style="shape=table;startSize=30;container=1;collapsible=1;childLayout=tableLayout;fixedRows=1;rowLines=0;fontStyle=1;align=center;resizeLast=1;strokeColor=#000000;" vertex="1" parent="1">
          <mxGeometry x="40" y="40" width="310" height="160" as="geometry" />
        </mxCell>
        <mxCell id="7pn-BCswpGSPGxiC52ko-100" value="" style="shape=partialRectangle;collapsible=0;dropTarget=0;pointerEvents=0;fillColor=none;top=0;left=0;bottom=1;right=0;points=[[0,0.5],[1,0.5]];portConstraint=eastwest;" vertex="1" parent="7pn-BCswpGSPGxiC52ko-99">
          <mxGeometry y="30" width="310" height="30" as="geometry" />
        </mxCell>
        <mxCell id="7pn-BCswpGSPGxiC52ko-101" value="PK,FK1" style="shape=partialRectangle;connectable=0;fillColor=none;top=0;left=0;bottom=0;right=0;fontStyle=1;overflow=hidden;" vertex="1" parent="7pn-BCswpGSPGxiC52ko-100">
          <mxGeometry width="50" height="30" as="geometry" />
        </mxCell>
        <mxCell id="7pn-BCswpGSPGxiC52ko-102" value="order_id" style="shape=partialRectangle;connectable=0;fillColor=none;top=0;left=0;bottom=0;right=0;align=left;spacingLeft=6;fontStyle=5;overflow=hidden;" vertex="1" parent="7pn-BCswpGSPGxiC52ko-100">
          <mxGeometry x="50" width="260" height="30" as="geometry" />
        </mxCell>
        <mxCell id="7pn-BCswpGSPGxiC52ko-112" value="" style="shape=partialRectangle;collapsible=0;dropTarget=0;pointerEvents=0;fillColor=none;top=0;left=0;bottom=1;right=0;points=[[0,0.5],[1,0.5]];portConstraint=eastwest;strokeColor=#000000;" vertex="1" parent="7pn-BCswpGSPGxiC52ko-99">
          <mxGeometry y="60" width="310" height="30" as="geometry" />
        </mxCell>
        <mxCell id="7pn-BCswpGSPGxiC52ko-113" value="PK,FK2" style="shape=partialRectangle;connectable=0;fillColor=none;top=0;left=0;bottom=0;right=0;fontStyle=1;overflow=hidden;" vertex="1" parent="7pn-BCswpGSPGxiC52ko-112">
          <mxGeometry width="50" height="30" as="geometry" />
        </mxCell>
        <mxCell id="7pn-BCswpGSPGxiC52ko-114" value="product_id" style="shape=partialRectangle;connectable=0;fillColor=none;top=0;left=0;bottom=0;right=0;align=left;spacingLeft=6;fontStyle=5;overflow=hidden;" vertex="1" parent="7pn-BCswpGSPGxiC52ko-112">
          <mxGeometry x="50" width="260" height="30" as="geometry" />
        </mxCell>
        <mxCell id="7pn-BCswpGSPGxiC52ko-103" value="" style="shape=partialRectangle;collapsible=0;dropTarget=0;pointerEvents=0;fillColor=none;top=0;left=0;bottom=0;right=0;points=[[0,0.5],[1,0.5]];portConstraint=eastwest;" vertex="1" parent="7pn-BCswpGSPGxiC52ko-99">
          <mxGeometry y="90" width="310" height="30" as="geometry" />
        </mxCell>
        <mxCell id="7pn-BCswpGSPGxiC52ko-104" value="" style="shape=partialRectangle;connectable=0;fillColor=none;top=0;left=0;bottom=0;right=0;editable=1;overflow=hidden;" vertex="1" parent="7pn-BCswpGSPGxiC52ko-103">
          <mxGeometry width="50" height="30" as="geometry" />
        </mxCell>
        <mxCell id="7pn-BCswpGSPGxiC52ko-105" value="add_to_cart_order" style="shape=partialRectangle;connectable=0;fillColor=none;top=0;left=0;bottom=0;right=0;align=left;spacingLeft=6;overflow=hidden;" vertex="1" parent="7pn-BCswpGSPGxiC52ko-103">
          <mxGeometry x="50" width="260" height="30" as="geometry" />
        </mxCell>
        <mxCell id="7pn-BCswpGSPGxiC52ko-106" value="" style="shape=partialRectangle;collapsible=0;dropTarget=0;pointerEvents=0;fillColor=none;top=0;left=0;bottom=0;right=0;points=[[0,0.5],[1,0.5]];portConstraint=eastwest;" vertex="1" parent="7pn-BCswpGSPGxiC52ko-99">
          <mxGeometry y="120" width="310" height="30" as="geometry" />
        </mxCell>
        <mxCell id="7pn-BCswpGSPGxiC52ko-107" value="" style="shape=partialRectangle;connectable=0;fillColor=none;top=0;left=0;bottom=0;right=0;editable=1;overflow=hidden;" vertex="1" parent="7pn-BCswpGSPGxiC52ko-106">
          <mxGeometry width="50" height="30" as="geometry" />
        </mxCell>
        <mxCell id="7pn-BCswpGSPGxiC52ko-108" value="reordered" style="shape=partialRectangle;connectable=0;fillColor=none;top=0;left=0;bottom=0;right=0;align=left;spacingLeft=6;overflow=hidden;" vertex="1" parent="7pn-BCswpGSPGxiC52ko-106">
          <mxGeometry x="50" width="260" height="30" as="geometry" />
        </mxCell>
        <mxCell id="7pn-BCswpGSPGxiC52ko-115" value="" style="edgeStyle=entityRelationEdgeStyle;fontSize=12;html=1;endArrow=ERmandOne;startArrow=ERmandOne;exitX=1;exitY=0.5;exitDx=0;exitDy=0;entryX=0;entryY=0.5;entryDx=0;entryDy=0;" edge="1" parent="1" source="7pn-BCswpGSPGxiC52ko-100" target="7pn-BCswpGSPGxiC52ko-28">
          <mxGeometry width="100" height="100" relative="1" as="geometry">
            <mxPoint x="340" y="330" as="sourcePoint" />
            <mxPoint x="440" y="230" as="targetPoint" />
          </mxGeometry>
        </mxCell>
        <mxCell id="7pn-BCswpGSPGxiC52ko-117" value="" style="edgeStyle=entityRelationEdgeStyle;fontSize=12;html=1;endArrow=ERmandOne;startArrow=ERmandOne;exitX=1;exitY=0.5;exitDx=0;exitDy=0;entryX=0;entryY=0.5;entryDx=0;entryDy=0;" edge="1" parent="1" source="7pn-BCswpGSPGxiC52ko-66" target="7pn-BCswpGSPGxiC52ko-74">
          <mxGeometry width="100" height="100" relative="1" as="geometry">
            <mxPoint x="340" y="330" as="sourcePoint" />
            <mxPoint x="440" y="230" as="targetPoint" />
          </mxGeometry>
        </mxCell>
        <mxCell id="7pn-BCswpGSPGxiC52ko-118" value="" style="edgeStyle=entityRelationEdgeStyle;fontSize=12;html=1;endArrow=ERmandOne;startArrow=ERmandOne;exitX=1;exitY=0.5;exitDx=0;exitDy=0;entryX=0;entryY=0.5;entryDx=0;entryDy=0;" edge="1" parent="1" source="7pn-BCswpGSPGxiC52ko-70" target="7pn-BCswpGSPGxiC52ko-87">
          <mxGeometry width="100" height="100" relative="1" as="geometry">
            <mxPoint x="340" y="330" as="sourcePoint" />
            <mxPoint x="440" y="230" as="targetPoint" />
          </mxGeometry>
        </mxCell>
        <mxCell id="7pn-BCswpGSPGxiC52ko-119" value="" style="edgeStyle=entityRelationEdgeStyle;fontSize=12;html=1;endArrow=ERmandOne;startArrow=ERmandOne;exitX=1;exitY=0.5;exitDx=0;exitDy=0;" edge="1" parent="1" source="7pn-BCswpGSPGxiC52ko-53" target="7pn-BCswpGSPGxiC52ko-112">
          <mxGeometry width="100" height="100" relative="1" as="geometry">
            <mxPoint x="340" y="330" as="sourcePoint" />
            <mxPoint x="440" y="230" as="targetPoint" />
          </mxGeometry>
        </mxCell>
      </root>
    </mxGraphModel>
  </diagram>
</mxfile>
